<?xml version="1.0" encoding="iso-8859-1"?>
<!-- Generator: Adobe Illustrator 21.0.0, SVG Export Plug-In . SVG Version: 6.00 Build 0)  -->
<svg version="1.1" id="Capa_1" xmlns="http://www.w3.org/2000/svg" xmlns:xlink="http://www.w3.org/1999/xlink" x="0px" y="0px"
	 viewBox="0 0 512 512" style="enable-background:new 0 0 512 512;" xml:space="preserve">
<path style="fill:#FFCEBF;" d="M478.595,276.599l-57.599-86.1c-1.5-57.299-27.599-110.7-72.001-146.999
	C313.896,15,270.696,0,225.996,0c-14.099,0-27.599,1.5-41.7,4.499c-74.1,15.3-134.1,75.6-149.1,149.701
	c-13.801,67.5,6.899,134.7,55.8,181.5V497c0,8.399,6.599,15,15,15h180c8.401,0,15-6.601,15-15v-77h75c24.901,0,45-20.101,45-45
	v-50.7l51.599-25.8c3.9-2.1,6.901-5.402,7.8-9.6C481.596,284.7,480.996,280.199,478.595,276.599z"/>
<path style="fill:#FFBFAB;" d="M480.395,288.9c-0.899,4.199-3.9,7.5-7.8,9.6l-51.599,25.8V375c0,24.899-20.099,45-45,45h-75v77
	c0,8.399-6.599,15-15,15h-60V0c44.7,0,87.9,15,122.999,43.5c44.401,36.299,70.501,89.7,72.001,146.999l57.599,86.1
	C480.996,280.199,481.596,284.7,480.395,288.9z"/>
<g>
	<path style="fill:#FF7816;" d="M270.996,345c0,8.399-6.599,15-15,15h-60c-8.401,0-15-6.601-15-15c0-8.401,6.599-15,15-15h60
		C264.397,330,270.996,336.599,270.996,345z"/>
	<path style="fill:#FF7816;" d="M240.996,105v30c0,8.399-6.599,15-15,15s-15-6.601-15-15v-30c0-8.401,6.599-15,15-15
		S240.996,96.599,240.996,105z"/>
</g>
<g>
	<path style="fill:#FF4B00;" d="M268.418,167.578c-3.838,0-7.676-1.465-10.605-4.395c-5.859-5.859-5.859-15.352,0-21.211
		l21.211-21.211c5.859-5.859,15.352-5.859,21.211,0s5.859,15.352,0,21.211l-21.211,21.211
		C276.093,166.113,272.256,167.578,268.418,167.578z"/>
	<path style="fill:#FF4B00;" d="M315.996,210h-30c-8.291,0-15-6.709-15-15s6.709-15,15-15h30c8.291,0,15,6.709,15,15
		S324.287,210,315.996,210z"/>
</g>
<g>
	<path style="fill:#FF7816;" d="M165.996,210h-30c-8.291,0-15-6.709-15-15s6.709-15,15-15h30c8.291,0,15,6.709,15,15
		S174.287,210,165.996,210z"/>
	<path style="fill:#FF7816;" d="M172.968,163.184l-21.211-21.211c-5.859-5.859-5.859-15.352,0-21.211s15.352-5.859,21.211,0
		l21.211,21.211c5.859,5.859,5.859,15.352,0,21.211S178.828,169.043,172.968,163.184z"/>
</g>
<g>
	<path style="fill:#FF4B00;" d="M225.996,150V90c8.401,0,15,6.599,15,15v30C240.996,143.399,234.397,150,225.996,150z"/>
	<path style="fill:#FF4B00;" d="M270.996,345c0,8.399-6.599,15-15,15h-30v-30h30C264.397,330,270.996,336.599,270.996,345z"/>
</g>
<path style="fill:#FF9F00;" d="M225.996,120c-5.4,0-10.8,0.599-16.199,1.8c-27.001,5.7-49.801,27.599-56.4,54.3
	c-6,24.3-0.3,49.2,15.899,67.8c7.8,9.3,11.7,18.3,11.7,26.999V285c0,8.399,6.599,15,15,15h60c8.401,0,15-6.601,15-15v-17.401
	c0-9,5.4-16.5,9.6-21.301c13.2-13.799,20.4-32.098,20.4-51.299C300.996,152.999,266.795,120,225.996,120z"/>
<path style="fill:#FF7816;" d="M300.996,195c0,19.2-7.2,37.5-20.4,51.299c-4.2,4.801-9.6,12.301-9.6,21.301V285
	c0,8.399-6.599,15-15,15h-30V120C266.795,120,300.996,152.999,300.996,195z"/>
<g>
</g>
<g>
</g>
<g>
</g>
<g>
</g>
<g>
</g>
<g>
</g>
<g>
</g>
<g>
</g>
<g>
</g>
<g>
</g>
<g>
</g>
<g>
</g>
<g>
</g>
<g>
</g>
<g>
</g>
</svg>
